<svg xmlns="http://www.w3.org/2000/svg" viewBox="0 0 1000 1000" preserveAspectRatio="xMidYMid slice" role="img" aria-hidden="true">
  <defs>
    <radialGradient id="bg" cx="50%" cy="32%" r="80%">
      <stop offset="0%" stop-color="#fffdfb"/>
      <stop offset="60%" stop-color="#f8f1ec"/>
      <stop offset="100%" stop-color="#f0e5dd"/>
    </radialGradient>
    <radialGradient id="glow" cx="26%" cy="20%" r="60%">
      <stop offset="0%" stop-color="#edc3cb" stop-opacity=".55"/>
      <stop offset="100%" stop-color="#edc3cb" stop-opacity="0"/>
    </radialGradient>
    <radialGradient id="leaf" cx="82%" cy="84%" r="55%">
      <stop offset="0%" stop-color="#8fa887" stop-opacity=".40"/>
      <stop offset="100%" stop-color="#8fa887" stop-opacity="0"/>
    </radialGradient>
    <linearGradient id="sheen" x1="0" y1="0" x2="0" y2="1">
      <stop offset="0%" stop-color="#ffffff" stop-opacity=".85"/>
      <stop offset="100%" stop-color="#ffffff" stop-opacity=".2"/>
    </linearGradient>
    <filter id="grain" x="0" y="0" width="100%" height="100%">
      <feTurbulence type="fractalNoise" baseFrequency="0.9" numOctaves="3" seed="7"/>
      <feColorMatrix type="saturate" values="0"/>
      <feComponentTransfer><feFuncA type="linear" slope="0.045"/></feComponentTransfer>
    </filter>
    <filter id="soft" x="-30%" y="-30%" width="160%" height="160%">
      <feGaussianBlur stdDeviation="16"/>
    </filter>
  </defs>
  <rect width="1000" height="1000" fill="url(#bg)"/>
  <rect width="1000" height="1000" fill="url(#glow)"/>
  <rect width="1000" height="1000" fill="url(#leaf)"/>
  <g stroke="#b05467" fill="none" stroke-linecap="round" stroke-linejoin="round">
    <circle cx="500" cy="500" r="330" stroke-opacity=".16" stroke-width="3"/>
    <circle cx="500" cy="500" r="268" stroke-opacity=".3" stroke-width="6" fill="#fffdfb"/>
    <circle cx="500" cy="500" r="238" stroke-opacity=".18" stroke-width="3"/>
    <!-- crema -->
    <circle cx="500" cy="500" r="222" fill="#edc3cb" fill-opacity=".16" stroke="none"/>
    <!-- rosetta -->
    <g stroke-opacity=".92" stroke-width="7" fill="none">
      <path d="M500 318c0 60-6 210-6 270"/>
      <path d="M494 640c26-16 46-38 54-64-24 4-44 18-54 34"/>
      <path d="M494 640c-26-16-46-38-54-64 24 4 44 18 54 34"/>
      <path d="M497 560c34-14 60-38 70-70-30 2-56 20-70 44"/>
      <path d="M497 560c-34-14-60-38-70-70 30 2 56 20 70 44"/>
      <path d="M499 470c40-14 70-42 82-80-34 2-66 24-82 52"/>
      <path d="M499 470c-40-14-70-42-82-80 34 2 66 24 82 52"/>
      <path d="M500 380c30-16 50-42 56-74-26 6-46 26-56 50"/>
      <path d="M500 380c-30-16-50-42-56-74 26 6 46 26 56 50"/>
    </g>
    <!-- handle -->
    <path d="M768 452c56-6 92 22 92 52s-36 56-92 50" stroke-opacity=".3" stroke-width="6"/>
    <!-- saucer highlight -->
    <path d="M240 330a330 330 0 0 1 140-108" stroke-opacity=".28" stroke-width="4"/>
  </g>
  <rect width="1000" height="1000" filter="url(#grain)" opacity=".7"/>
</svg>
